<svg width="149" height="38" viewBox="0 0 149 38" fill="none" xmlns="http://www.w3.org/2000/svg">
<g filter="url(#filter0_dii)">
<path d="M20.4482 8.89767C20.5937 9.14655 20.4141 9.45935 20.1256 9.45935H16.7103C16.4935 9.45935 16.3579 9.69115 16.4663 9.8766L23.7856 22.3942C23.8941 22.5797 24.1652 22.5797 24.2736 22.3942L31.5929 9.8766C31.7013 9.69116 31.5658 9.45935 31.3489 9.45935H27.9336C27.6452 9.45935 27.4655 9.14655 27.6111 8.89767L31.6442 2H40.5034C41.6518 2 42.371 3.24054 41.7998 4.23609L27.449 29.2494C27.1826 29.7137 26.6881 30 26.1526 30H21.1799C20.6335 30 20.1307 29.702 19.8686 29.223L6.18525 4.20964C5.64086 3.21449 6.36155 2 7.49648 2H16.415L20.4482 8.89767Z" fill="white"/>
</g>
<path d="M58.41 4.29L54.9 15H51.495L48 4.29H51.255L52.71 9.72C52.76 9.92 52.82 10.18 52.89 10.5C52.96 10.82 53.025 11.14 53.085 11.46C53.155 11.78 53.195 12.04 53.205 12.24C53.225 12.04 53.26 11.785 53.31 11.475C53.37 11.155 53.43 10.84 53.49 10.53C53.56 10.21 53.625 9.95 53.685 9.75L55.17 4.29H58.41ZM66.575 11.745C66.575 12.325 66.425 12.875 66.125 13.395C65.835 13.915 65.38 14.34 64.76 14.67C64.15 14.99 63.355 15.15 62.375 15.15C61.885 15.15 61.455 15.125 61.085 15.075C60.725 15.035 60.385 14.965 60.065 14.865C59.745 14.765 59.415 14.635 59.075 14.475V11.895C59.655 12.185 60.24 12.41 60.83 12.57C61.42 12.72 61.955 12.795 62.435 12.795C62.865 12.795 63.18 12.72 63.38 12.57C63.58 12.42 63.68 12.23 63.68 12C63.68 11.72 63.53 11.495 63.23 11.325C62.94 11.145 62.445 10.9 61.745 10.59C61.215 10.34 60.755 10.08 60.365 9.81C59.975 9.53 59.675 9.19 59.465 8.79C59.255 8.39 59.15 7.885 59.15 7.275C59.15 6.585 59.32 6.01 59.66 5.55C60 5.08 60.47 4.73 61.07 4.5C61.68 4.26 62.385 4.14 63.185 4.14C63.885 4.14 64.515 4.22 65.075 4.38C65.635 4.53 66.135 4.705 66.575 4.905L65.69 7.14C65.23 6.93 64.775 6.765 64.325 6.645C63.885 6.515 63.475 6.45 63.095 6.45C62.725 6.45 62.45 6.515 62.27 6.645C62.1 6.775 62.015 6.94 62.015 7.14C62.015 7.31 62.08 7.46 62.21 7.59C62.34 7.72 62.555 7.865 62.855 8.025C63.165 8.175 63.585 8.37 64.115 8.61C64.635 8.84 65.075 9.095 65.435 9.375C65.805 9.645 66.085 9.97 66.275 10.35C66.475 10.72 66.575 11.185 66.575 11.745ZM71.9323 4.29C73.2923 4.29 74.3073 4.585 74.9773 5.175C75.6573 5.765 75.9973 6.605 75.9973 7.695C75.9973 8.185 75.9273 8.655 75.7873 9.105C75.6473 9.545 75.4173 9.945 75.0973 10.305C74.7873 10.655 74.3723 10.935 73.8523 11.145C73.3323 11.345 72.6923 11.445 71.9323 11.445H71.1223V15H68.2273V4.29H71.9323ZM71.8723 6.63H71.1223V9.09H71.6923C72.0723 9.09 72.4023 8.995 72.6823 8.805C72.9623 8.605 73.1023 8.26 73.1023 7.77C73.1023 7.43 73.0023 7.155 72.8023 6.945C72.6023 6.735 72.2923 6.63 71.8723 6.63ZM84.0648 15H77.7048V4.29H84.0648V6.615H80.5998V8.295H83.8098V10.62H80.5998V12.645H84.0648V15ZM92.2972 15H85.9372V4.29H92.2972V6.615H88.8322V8.295H92.0422V10.62H88.8322V12.645H92.2972V15ZM103.26 9.42C103.26 10.66 103.025 11.695 102.555 12.525C102.095 13.355 101.445 13.975 100.605 14.385C99.7646 14.795 98.7746 15 97.6346 15H94.1696V4.29H97.8746C99.6046 4.29 100.935 4.73 101.865 5.61C102.795 6.49 103.26 7.76 103.26 9.42ZM100.26 9.525C100.26 7.595 99.4746 6.63 97.9046 6.63H97.0646V12.63H97.7096C98.5896 12.63 99.2346 12.375 99.6446 11.865C100.055 11.355 100.26 10.575 100.26 9.525Z" fill="#407CEF"/>
<path d="M53.925 21.51C53.245 21.51 52.71 21.79 52.32 22.35C51.93 22.91 51.735 23.69 51.735 24.69C51.735 25.7 51.93 26.47 52.32 27C52.71 27.52 53.3 27.78 54.09 27.78C54.56 27.78 55.015 27.715 55.455 27.585C55.905 27.455 56.355 27.295 56.805 27.105V29.55C56.335 29.76 55.85 29.91 55.35 30C54.86 30.1 54.335 30.15 53.775 30.15C52.615 30.15 51.665 29.92 50.925 29.46C50.185 29 49.64 28.36 49.29 27.54C48.94 26.71 48.765 25.755 48.765 24.675C48.765 23.595 48.965 22.64 49.365 21.81C49.765 20.98 50.35 20.33 51.12 19.86C51.9 19.38 52.845 19.14 53.955 19.14C54.475 19.14 55.02 19.2 55.59 19.32C56.16 19.44 56.72 19.63 57.27 19.89L56.385 22.17C55.995 21.98 55.6 21.825 55.2 21.705C54.8 21.575 54.375 21.51 53.925 21.51ZM68.6232 24.63C68.6232 25.74 68.4432 26.71 68.0832 27.54C67.7332 28.36 67.1732 29 66.4032 29.46C65.6432 29.92 64.6482 30.15 63.4182 30.15C62.2182 30.15 61.2332 29.92 60.4632 29.46C59.6932 29 59.1232 28.355 58.7532 27.525C58.3932 26.695 58.2132 25.725 58.2132 24.615C58.2132 23.505 58.3982 22.54 58.7682 21.72C59.1382 20.89 59.7082 20.25 60.4782 19.8C61.2482 19.35 62.2332 19.125 63.4332 19.125C64.6532 19.125 65.6432 19.355 66.4032 19.815C67.1732 20.265 67.7332 20.905 68.0832 21.735C68.4432 22.555 68.6232 23.52 68.6232 24.63ZM61.2582 24.63C61.2582 25.6 61.4232 26.36 61.7532 26.91C62.0932 27.46 62.6482 27.735 63.4182 27.735C64.2182 27.735 64.7782 27.46 65.0982 26.91C65.4182 26.36 65.5782 25.6 65.5782 24.63C65.5782 23.66 65.4182 22.895 65.0982 22.335C64.7782 21.775 64.2232 21.495 63.4332 21.495C62.6432 21.495 62.0832 21.775 61.7532 22.335C61.4232 22.895 61.2582 23.66 61.2582 24.63ZM80.7564 30H76.9614L73.0464 22.455H72.9864C73.0064 22.685 73.0264 22.965 73.0464 23.295C73.0664 23.615 73.0814 23.94 73.0914 24.27C73.1114 24.6 73.1214 24.9 73.1214 25.17V30H70.5564V19.29H74.3364L78.2364 26.73H78.2814C78.2714 26.5 78.2564 26.23 78.2364 25.92C78.2164 25.61 78.2014 25.295 78.1914 24.975C78.1814 24.655 78.1764 24.375 78.1764 24.135V19.29H80.7564V30ZM87.7911 30H84.8961V21.66H82.2861V19.29H90.4011V21.66H87.7911V30ZM95.4384 19.29C98.3484 19.29 99.8034 20.345 99.8034 22.455C99.8034 23.105 99.6384 23.67 99.3084 24.15C98.9884 24.62 98.5484 25.015 97.9884 25.335L101.108 30H97.8234L95.5584 26.1H94.8234V30H91.9284V19.29H95.4384ZM95.3934 21.48H94.8234V23.925H95.3634C95.8034 23.925 96.1634 23.83 96.4434 23.64C96.7334 23.44 96.8784 23.09 96.8784 22.59C96.8784 22.24 96.7634 21.97 96.5334 21.78C96.3034 21.58 95.9234 21.48 95.3934 21.48ZM112.1 24.63C112.1 25.74 111.92 26.71 111.56 27.54C111.21 28.36 110.65 29 109.88 29.46C109.12 29.92 108.125 30.15 106.895 30.15C105.695 30.15 104.71 29.92 103.94 29.46C103.17 29 102.6 28.355 102.23 27.525C101.87 26.695 101.69 25.725 101.69 24.615C101.69 23.505 101.875 22.54 102.245 21.72C102.615 20.89 103.185 20.25 103.955 19.8C104.725 19.35 105.71 19.125 106.91 19.125C108.13 19.125 109.12 19.355 109.88 19.815C110.65 20.265 111.21 20.905 111.56 21.735C111.92 22.555 112.1 23.52 112.1 24.63ZM104.735 24.63C104.735 25.6 104.9 26.36 105.23 26.91C105.57 27.46 106.125 27.735 106.895 27.735C107.695 27.735 108.255 27.46 108.575 26.91C108.895 26.36 109.055 25.6 109.055 24.63C109.055 23.66 108.895 22.895 108.575 22.335C108.255 21.775 107.7 21.495 106.91 21.495C106.12 21.495 105.56 21.775 105.23 22.335C104.9 22.895 104.735 23.66 104.735 24.63ZM114.033 30V19.29H116.928V27.66H121.053V30H114.033ZM122.763 30V19.29H125.658V27.66H129.783V30H122.763ZM137.854 30H131.494V19.29H137.854V21.615H134.389V23.295H137.599V25.62H134.389V27.645H137.854V30ZM143.236 19.29C146.146 19.29 147.601 20.345 147.601 22.455C147.601 23.105 147.436 23.67 147.106 24.15C146.786 24.62 146.346 25.015 145.786 25.335L148.906 30H145.621L143.356 26.1H142.621V30H139.726V19.29H143.236ZM143.191 21.48H142.621V23.925H143.161C143.601 23.925 143.961 23.83 144.241 23.64C144.531 23.44 144.676 23.09 144.676 22.59C144.676 22.24 144.561 21.97 144.331 21.78C144.101 21.58 143.721 21.48 143.191 21.48Z" fill="white"/>
<defs>
<filter id="filter0_dii" x="0.6" y="0" width="46" height="38" filterUnits="userSpaceOnUse" color-interpolation-filters="sRGB">
<feFlood flood-opacity="0" result="BackgroundImageFix"/>
<feColorMatrix in="SourceAlpha" type="matrix" values="0 0 0 0 0 0 0 0 0 0 0 0 0 0 0 0 0 0 127 0" result="hardAlpha"/>
<feOffset dx="-0.4" dy="3"/>
<feGaussianBlur stdDeviation="2.5"/>
<feComposite in2="hardAlpha" operator="out"/>
<feColorMatrix type="matrix" values="0 0 0 0 0.027451 0 0 0 0 0.27451 0 0 0 0 0.501961 0 0 0 0.25 0"/>
<feBlend mode="normal" in2="BackgroundImageFix" result="effect1_dropShadow"/>
<feBlend mode="normal" in="SourceGraphic" in2="effect1_dropShadow" result="shape"/>
<feColorMatrix in="SourceAlpha" type="matrix" values="0 0 0 0 0 0 0 0 0 0 0 0 0 0 0 0 0 0 127 0" result="hardAlpha"/>
<feOffset dy="-0.8"/>
<feGaussianBlur stdDeviation="2"/>
<feComposite in2="hardAlpha" operator="arithmetic" k2="-1" k3="1"/>
<feColorMatrix type="matrix" values="0 0 0 0 0.258824 0 0 0 0 0.721569 0 0 0 0 0.980392 0 0 0 0.5 0"/>
<feBlend mode="normal" in2="shape" result="effect2_innerShadow"/>
<feColorMatrix in="SourceAlpha" type="matrix" values="0 0 0 0 0 0 0 0 0 0 0 0 0 0 0 0 0 0 127 0" result="hardAlpha"/>
<feOffset dy="1"/>
<feGaussianBlur stdDeviation="1"/>
<feComposite in2="hardAlpha" operator="arithmetic" k2="-1" k3="1"/>
<feColorMatrix type="matrix" values="0 0 0 0 1 0 0 0 0 1 0 0 0 0 1 0 0 0 0.85 0"/>
<feBlend mode="normal" in2="effect2_innerShadow" result="effect3_innerShadow"/>
</filter>
</defs>
</svg>
